<?xml version="1.0" encoding="UTF-8" standalone="no"?>
<svg
   viewBox="0 0 265 265"
   version="1.1"
   fill="none"
   id="svg24"
   sodipodi:docname="icon-dhl-full.svg"
   inkscape:version="1.4.2 (ebf0e940, 2025-05-08)"
   xmlns:inkscape="http://www.inkscape.org/namespaces/inkscape"
   xmlns:sodipodi="http://sodipodi.sourceforge.net/DTD/sodipodi-0.dtd"
   xmlns="http://www.w3.org/2000/svg"
   xmlns:svg="http://www.w3.org/2000/svg">
  <defs
     id="defs28">
    <inkscape:path-effect
       effect="fillet_chamfer"
       id="path-effect1"
       is_visible="true"
       lpeversion="1"
       nodesatellites_param="F,0,1,1,0,5.9466354,0,1 @ F,0,1,1,0,5.9466354,0,1 @ F,0,0,1,0,5.9466354,0,1 @ F,0,1,1,0,5.9466354,0,1"
       radius="0"
       unit="px"
       method="auto"
       mode="F"
       chamfer_steps="1"
       flexible="false"
       use_knot_distance="true"
       apply_no_radius="true"
       apply_with_radius="true"
       only_selected="false"
       hide_knots="false" />
  </defs>
  <sodipodi:namedview
     id="namedview26"
     pagecolor="#ffffff"
     bordercolor="#000000"
     borderopacity="0.25"
     inkscape:showpageshadow="2"
     inkscape:pageopacity="0.0"
     inkscape:pagecheckerboard="0"
     inkscape:deskcolor="#d1d1d1"
     showgrid="false"
     inkscape:zoom="1.78"
     inkscape:cx="178.65169"
     inkscape:cy="99.719103"
     inkscape:window-width="1512"
     inkscape:window-height="860"
     inkscape:window-x="0"
     inkscape:window-y="38"
     inkscape:window-maximized="0"
     inkscape:current-layer="g22" />
  <g
     id="g22">
    <path
       id="rect1990"
       style="fill:#9a4dff"
       d="m 12,0 h 241 c 6.648,0 12,5.352 12,12 v 241 c 0,6.648 -5.352,12 -12,12 H 12 C 5.352,265 0,259.648 0,253 V 12 C 0,5.352 5.352,0 12,0 Z" />
    <path
       id="rect16"
       style="fill:#533582;stroke-width:0.96923;stroke-linejoin:round"
       d="M 97.683617,0 H 166.89972 V 61.350636 H 97.683617 Z" />
    <g
       aria-label="S"
       transform="matrix(0.26458333,0,0,0.31909936,-8.4053331,-16.453577)"
       style="fill:#9a4dff;stroke-width:3.78709;stroke-linejoin:round"
       id="g20">
      <path
         d="m 532.70153,216.55199 q -10.45335,0 -20.72004,-2.61333 -10.17335,-2.61334 -18.76003,-7.93335 -8.49335,-5.32001 -14.00003,-13.34669 -5.50667,-8.12002 -6.34668,-19.04004 h 36.96007 q 1.02667,4.76001 4.01334,8.12002 2.98667,3.36 7.74668,5.22667 4.76001,1.77334 10.92002,1.77334 5.60001,0 10.54669,-1.12 5.04001,-1.12 8.12001,-3.73334 3.17334,-2.70667 3.17334,-7.46668 0,-4.10668 -3.26667,-6.34668 -3.17334,-2.24 -8.30668,-3.45334 -5.04001,-1.21334 -10.64002,-2.14667 l -20.62671,-3.54667 q -15.49336,-2.52001 -25.01337,-12.50669 -9.42669,-10.08002 -9.80002,-27.25339 -0.18667,-13.62669 7.28001,-23.240038 7.56001,-9.706685 20.16004,-14.746694 12.69335,-5.133343 28.00005,-5.133343 18.48003,0 31.26672,5.413344 12.78669,5.413343 19.41337,15.026694 6.72001,9.613347 7.00001,22.120037 H 553.7949 q -0.56,-5.22667 -3.17334,-8.40001 -2.61334,-3.26667 -7.09334,-4.66668 -4.38668,-1.49333 -10.64002,-1.49333 -5.22668,0 -8.77335,1.02666 -3.45334,0.93334 -5.50668,2.52001 -2.05334,1.49334 -2.98667,3.36001 -0.84,1.86667 -0.84,3.73334 0,4.57334 2.89334,7.37334 2.89333,2.80001 11.57335,4.38668 l 20.72004,3.54667 q 14.46669,2.52001 22.68004,7.84001 8.21335,5.22668 12.04002,11.85336 3.92001,6.62668 4.94668,13.16002 1.02667,6.53335 1.02667,11.57336 0,11.48002 -7.65335,20.6267 -7.56002,9.05335 -20.62671,14.28003 -13.06669,5.22667 -29.68005,5.22667 z"
         id="path18" />
    </g>
    <path
       d="m 27.25278,133.33098 210.49443,0 a 5.9466354,5.9466354 45 0 1 5.94664,5.94664 v 37.18326 a 5.9466354,5.9466354 135 0 1 -5.94664,5.94664 H 27.25278 a 5.9466354,5.9466354 45 0 1 -5.946635,-5.94664 v -37.18326 a 5.9466354,5.9466354 135 0 1 5.946635,-5.94664 z"
       fill="#ffcc00"
       id="path1985"
       style="stroke-width:1.13463"
       inkscape:label="path1626"
       sodipodi:nodetypes="ccccc"
       transform="translate(0,-6)" />
    <g
       fill="#d40511"
       id="g1654"
       transform="matrix(1.1346312,0,0,1.1346312,21.306142,127.33098)">
      <path
         d="m 0,29.901 h 26.506 l -1.448,1.97 H 0 Z"
         id="path1628" />
      <path
         d="m 0,26.245 h 29.199 l -1.451,1.968 H 0 Z"
         id="path1630" />
      <path
         d="m 0,33.56 h 23.815 l -1.442,1.956 H 0 Z"
         id="path1632" />
      <path
         d="m 196,31.871 h -26.402 l 1.447,-1.969 H 196 Z"
         id="path1634" />
      <path
         d="m 196,35.516 -29.087,0.003 1.441,-1.959 H 196 Z"
         id="path1636" />
      <path
         d="M 173.735,26.245 H 196 v 1.969 l -23.713,0.002 z"
         id="path1638" />
      <path
         d="M 25.6726,35.5163 38.2505,18.4275 h 15.6082 c 1.7252,0 1.7026,0.655 0.86,1.7975 -0.8562,1.16 -2.3133,3.1547 -3.1854,4.3323 -0.4426,0.5982 -1.2431,1.6881 1.4089,1.6881 h 20.91 c -1.739,2.3822 -7.38,9.2709 -17.5082,9.2709 z"
         id="path1640" />
      <path
         d="m 97.7056,26.244 -6.82,9.2723 H 72.893 c 0,0 6.8172,-9.2709 6.8233,-9.2709 z"
         id="path1642" />
      <path
         d="M 123.7239,26.2454 116.9,35.5163 H 98.9143 c 0,0 6.8178,-9.2709 6.8239,-9.2709 z"
         id="path1644" />
      <path
         d="m 129.5749,26.2454 c 6e-4,0 -1.3141,1.7975 -1.9529,2.66 -2.2593,3.0534 -0.2626,6.6105 7.111,6.6105 h 28.8853 l 6.8226,-9.2709 z"
         id="path1646" />
      <path
         d="m 34.4685,7.8007 -6.2621,8.508 h 34.1289 c 1.7249,0 1.7023,0.655 0.8592,1.7974 -0.8562,1.1587 -2.2894,3.1763 -3.1614,4.3539 -0.4427,0.597 -1.2432,1.6867 1.4089,1.6867 h 13.9564 c 0,0 2.25,-3.0615 4.1352,-5.6206 C 82.0991,15.0446 79.7561,7.8007 70.585,7.8007 Z"
         id="path1648" />
      <path
         d="M 125.269,24.147 H 81.262 L 93.296,7.801 h 17.986 l -6.896,9.372 h 8.028 l 6.901,-9.372 h 17.984 z"
         id="path1650" />
      <path
         d="m 162.2084,7.8007 -12.0314,16.346 h -19.0593 c 0,0 12.0355,-16.346 12.0415,-16.346 z"
         id="path1652" />
    </g>
  </g>
</svg>
