<svg
   viewBox="0 0 265 265"
   version="1.1"
   fill="none"
   xmlns="http://www.w3.org/2000/svg">
    <rect
       style="fill:#9a4dff;"
       width="265"
       height="265"
       rx="12"
       x="0"
       y="0"/>
    <path
       d="m 27.25278,133.33098 210.49443,0 a 5.9466354,5.9466354 45 0 1 5.94664,5.94664 v 37.18326 a 5.9466354,5.9466354 135 0 1 -5.94664,5.94664 H 27.25278 a 5.9466354,5.9466354 45 0 1 -5.946635,-5.94664 v -37.18326 a 5.9466354,5.9466354 135 0 1 5.946635,-5.94664 z"
       fill="#ffcc00"
       transform="matrix(0.84130961,0,0,0.84130961,37.403551,6.6639625)" />
    <g
       fill="#d40511"
       transform="matrix(0.95457614,0,0,0.95457614,55.328614,118.8366)">
      <path
         d="m 0,29.901 h 26.506 l -1.448,1.97 H 0 Z"
      />
      <path
         d="m 0,26.245 h 29.199 l -1.451,1.968 H 0 Z"
      />
      <path
         d="m 0,33.56 h 23.815 l -1.442,1.956 H 0 Z"
      />
      <path
         d="m 196,31.871 h -26.402 l 1.447,-1.969 H 196 Z"
      />
      <path
         d="m 196,35.516 -29.087,0.003 1.441,-1.959 H 196 Z"
      />
      <path
         d="M 173.735,26.245 H 196 v 1.969 l -23.713,0.002 z"
      />
      <path
         d="M 25.6726,35.5163 38.2505,18.4275 h 15.6082 c 1.7252,0 1.7026,0.655 0.86,1.7975 -0.8562,1.16 -2.3133,3.1547 -3.1854,4.3323 -0.4426,0.5982 -1.2431,1.6881 1.4089,1.6881 h 20.91 c -1.739,2.3822 -7.38,9.2709 -17.5082,9.2709 z"
       />
      <path
         d="m 97.7056,26.244 -6.82,9.2723 H 72.893 c 0,0 6.8172,-9.2709 6.8233,-9.2709 z"
      />
      <path
         d="M 123.7239,26.2454 116.9,35.5163 H 98.9143 c 0,0 6.8178,-9.2709 6.8239,-9.2709 z"
      />
      <path
         d="m 129.5749,26.2454 c 6e-4,0 -1.3141,1.7975 -1.9529,2.66 -2.2593,3.0534 -0.2626,6.6105 7.111,6.6105 h 28.8853 l 6.8226,-9.2709 z"
      />
      <path
         d="m 34.4685,7.8007 -6.2621,8.508 h 34.1289 c 1.7249,0 1.7023,0.655 0.8592,1.7974 -0.8562,1.1587 -2.2894,3.1763 -3.1614,4.3539 -0.4427,0.597 -1.2432,1.6867 1.4089,1.6867 h 13.9564 c 0,0 2.25,-3.0615 4.1352,-5.6206 C 82.0991,15.0446 79.7561,7.8007 70.585,7.8007 Z"
      />
      <path
         d="M 125.269,24.147 H 81.262 L 93.296,7.801 h 17.986 l -6.896,9.372 h 8.028 l 6.901,-9.372 h 17.984 z"
      />
      <path
         d="m 162.2084,7.8007 -12.0314,16.346 h -19.0593 c 0,0 12.0355,-16.346 12.0415,-16.346 z"
      />
    </g>
    <path
       style="fill:#533582"
       d="m 220.76594,195.31765 -4.10519,21.35488 -183.249803,-0.19385 20.312458,-154.494063 60.998725,-1.51e-4 24.87309,22.501357 24.39457,-22.501357 72.40254,0.781245 2.45812,-11.999168 -208.17633,-13.005533 -8.59373,189.47798 216.49374,-0.19578 4.34548,-31.97949"
    />
</svg>
